<mxfile host="jupyterhub-redhat-ods-applications.apps.buaws-dev.idu6.p1.openshiftapps.com" modified="2023-01-24T06:27:43.402Z" agent="5.0 (Windows NT 10.0; Win64; x64) AppleWebKit/537.36 (KHTML, like Gecko) Chrome/109.0.0.0 Safari/537.36" etag="hYfXeiL82rvWP1N9YoA2" version="16.4.5" type="embed"><diagram id="Jtq0wx4SDSMLCsT2-B9x" name="Page-1"><mxGraphModel dx="726" dy="769" grid="1" gridSize="10" guides="1" tooltips="1" connect="1" arrows="1" fold="1" page="1" pageScale="1" pageWidth="850" pageHeight="1100" math="0" shadow="0"><root><mxCell id="0"/><mxCell id="1" style="" parent="0"/><mxCell id="2" value="" style="rounded=0;fillColor=#f8cecc;strokeColor=#b85450;" parent="1" vertex="1"><mxGeometry x="300" y="400" width="360" height="170" as="geometry"/></mxCell><mxCell id="5" value="" style="endArrow=none;rounded=0;strokeWidth=4;strokeColor=#FF0000;" parent="1" edge="1"><mxGeometry width="50" height="50" relative="1" as="geometry"><mxPoint x="280" y="390" as="sourcePoint"/><mxPoint x="680" y="390" as="targetPoint"/></mxGeometry></mxCell><mxCell id="6" value="HW protection&#10;Mechanism" style="text;align=center;verticalAlign=middle;resizable=0;points=[];autosize=1;strokeColor=none;fillColor=none;fontSize=15;" parent="1" vertex="1"><mxGeometry x="155" y="365" width="120" height="50" as="geometry"/></mxCell><object label="system call" id="N69s03XyUQndSGphbDnA-8"><mxCell parent="0"/></object><mxCell id="5MDx8M7PKH2fSza1fkfd-17" value="&lt;font style=&quot;font-size: 18px;&quot;&gt;&lt;b&gt;Kernel&lt;/b&gt;&lt;/font&gt;" style="text;html=1;align=center;verticalAlign=middle;resizable=0;points=[];autosize=1;strokeColor=none;fillColor=none;fontSize=15;" parent="N69s03XyUQndSGphbDnA-8" vertex="1"><mxGeometry x="425" y="465" width="80" height="40" as="geometry"/></mxCell><mxCell id="5MDx8M7PKH2fSza1fkfd-11" value="" style="rounded=0;fillColor=#dae8fc;strokeColor=#6c8ebf;" parent="N69s03XyUQndSGphbDnA-8" vertex="1"><mxGeometry x="510" y="240" width="130" height="140" as="geometry"/></mxCell><mxCell id="3" value="" style="rounded=0;fillColor=#dae8fc;strokeColor=#6c8ebf;" parent="N69s03XyUQndSGphbDnA-8" vertex="1"><mxGeometry x="300" y="240" width="130" height="140" as="geometry"/></mxCell><mxCell id="5MDx8M7PKH2fSza1fkfd-15" value="Process" style="text;html=1;align=center;verticalAlign=middle;resizable=0;points=[];autosize=1;strokeColor=none;fillColor=none;fontSize=15;" parent="N69s03XyUQndSGphbDnA-8" vertex="1"><mxGeometry x="320" y="210" width="80" height="30" as="geometry"/></mxCell><mxCell id="5MDx8M7PKH2fSza1fkfd-16" value="Process" style="text;html=1;align=center;verticalAlign=middle;resizable=0;points=[];autosize=1;strokeColor=none;fillColor=none;fontSize=15;" parent="N69s03XyUQndSGphbDnA-8" vertex="1"><mxGeometry x="535" y="210" width="80" height="30" as="geometry"/></mxCell><mxCell id="5MDx8M7PKH2fSza1fkfd-13" value="" style="shape=flexArrow;endArrow=classic;html=1;rounded=0;fillColor=#a20025;strokeColor=#6F0000;endWidth=8;endSize=7.33;" parent="N69s03XyUQndSGphbDnA-8" edge="1"><mxGeometry x="-0.7143" y="-120" width="50" height="50" relative="1" as="geometry"><mxPoint x="570" y="360" as="sourcePoint"/><mxPoint x="570" y="430" as="targetPoint"/><mxPoint as="offset"/></mxGeometry></mxCell><mxCell id="5MDx8M7PKH2fSza1fkfd-14" value="System Call" style="edgeLabel;html=1;align=center;verticalAlign=middle;resizable=0;points=[];fontSize=15;" parent="5MDx8M7PKH2fSza1fkfd-13" vertex="1" connectable="0"><mxGeometry x="-0.3143" relative="1" as="geometry"><mxPoint as="offset"/></mxGeometry></mxCell><mxCell id="5MDx8M7PKH2fSza1fkfd-7" value="" style="shape=flexArrow;endArrow=classic;html=1;rounded=0;fillColor=#a20025;strokeColor=#6F0000;endWidth=8;endSize=7.33;" parent="N69s03XyUQndSGphbDnA-8" edge="1"><mxGeometry x="-0.7143" y="-120" width="50" height="50" relative="1" as="geometry"><mxPoint x="360" y="360" as="sourcePoint"/><mxPoint x="360" y="430" as="targetPoint"/><mxPoint as="offset"/></mxGeometry></mxCell><mxCell id="5MDx8M7PKH2fSza1fkfd-12" value="System Call" style="edgeLabel;html=1;align=center;verticalAlign=middle;resizable=0;points=[];fontSize=15;" parent="5MDx8M7PKH2fSza1fkfd-7" vertex="1" connectable="0"><mxGeometry x="-0.3143" relative="1" as="geometry"><mxPoint as="offset"/></mxGeometry></mxCell><mxCell id="5MDx8M7PKH2fSza1fkfd-46" value="" style="shape=cylinder3;boundedLbl=1;backgroundOutline=1;size=15;fontSize=18;" parent="N69s03XyUQndSGphbDnA-8" vertex="1"><mxGeometry x="615" y="740" width="60" height="60" as="geometry"/></mxCell><mxCell id="5MDx8M7PKH2fSza1fkfd-47" value="" style="shape=link;rounded=0;fontSize=18;strokeWidth=1;" parent="N69s03XyUQndSGphbDnA-8" edge="1"><mxGeometry width="100" relative="1" as="geometry"><mxPoint x="450" y="639.5" as="sourcePoint"/><mxPoint x="650" y="640" as="targetPoint"/></mxGeometry></mxCell><mxCell id="5MDx8M7PKH2fSza1fkfd-48" style="edgeStyle=none;shape=link;rounded=0;orthogonalLoop=1;jettySize=auto;exitX=0.5;exitY=1;exitDx=0;exitDy=0;fontSize=18;strokeWidth=1;" parent="N69s03XyUQndSGphbDnA-8" source="5MDx8M7PKH2fSza1fkfd-50" target="5MDx8M7PKH2fSza1fkfd-54" edge="1"><mxGeometry relative="1" as="geometry"/></mxCell><mxCell id="5MDx8M7PKH2fSza1fkfd-49" style="edgeStyle=none;shape=link;rounded=0;orthogonalLoop=1;jettySize=auto;exitX=0.5;exitY=0;exitDx=0;exitDy=0;fontSize=18;strokeWidth=1;" parent="N69s03XyUQndSGphbDnA-8" source="5MDx8M7PKH2fSza1fkfd-50" edge="1"><mxGeometry relative="1" as="geometry"><mxPoint x="525" y="640" as="targetPoint"/></mxGeometry></mxCell><mxCell id="5MDx8M7PKH2fSza1fkfd-51" style="edgeStyle=none;shape=link;rounded=0;orthogonalLoop=1;jettySize=auto;exitX=0.5;exitY=1;exitDx=0;exitDy=0;fontSize=18;strokeWidth=1;" parent="N69s03XyUQndSGphbDnA-8" source="5MDx8M7PKH2fSza1fkfd-53" target="5MDx8M7PKH2fSza1fkfd-46" edge="1"><mxGeometry relative="1" as="geometry"/></mxCell><mxCell id="5MDx8M7PKH2fSza1fkfd-52" style="edgeStyle=none;shape=link;rounded=0;orthogonalLoop=1;jettySize=auto;exitX=0.5;exitY=0;exitDx=0;exitDy=0;fontSize=18;strokeWidth=1;" parent="N69s03XyUQndSGphbDnA-8" source="5MDx8M7PKH2fSza1fkfd-53" edge="1"><mxGeometry relative="1" as="geometry"><mxPoint x="645" y="640" as="targetPoint"/></mxGeometry></mxCell><UserObject label="Disk&#10;Controller" treeRoot="1" id="5MDx8M7PKH2fSza1fkfd-53"><mxCell style="align=center;collapsible=0;container=1;recursiveResize=0;fontSize=18;" parent="N69s03XyUQndSGphbDnA-8" vertex="1"><mxGeometry x="600" y="660" width="90" height="60" as="geometry"/></mxCell></UserObject><mxCell id="5MDx8M7PKH2fSza1fkfd-54" value="" style="sketch=0;pointerEvents=1;shadow=0;dashed=0;strokeColor=none;fillColor=#434445;aspect=fixed;labelPosition=center;verticalLabelPosition=bottom;verticalAlign=top;align=center;outlineConnect=0;shape=mxgraph.vvd.ethernet_port;fontSize=18;" parent="N69s03XyUQndSGphbDnA-8" vertex="1"><mxGeometry x="500" y="740" width="50" height="50" as="geometry"/></mxCell><mxCell id="5MDx8M7PKH2fSza1fkfd-56" value="Ethernet" style="text;resizable=0;autosize=1;align=center;verticalAlign=middle;points=[];fillColor=none;strokeColor=none;rounded=0;fontSize=18;" parent="N69s03XyUQndSGphbDnA-8" vertex="1"><mxGeometry x="480" y="785" width="80" height="30" as="geometry"/></mxCell><mxCell id="5MDx8M7PKH2fSza1fkfd-57" value="Disk" style="text;resizable=0;autosize=1;align=center;verticalAlign=middle;points=[];fillColor=none;strokeColor=none;rounded=0;fontSize=18;" parent="N69s03XyUQndSGphbDnA-8" vertex="1"><mxGeometry x="680" y="755" width="50" height="30" as="geometry"/></mxCell><UserObject label="Memory" treeRoot="1" id="5MDx8M7PKH2fSza1fkfd-45"><mxCell style="align=center;collapsible=0;container=1;recursiveResize=0;fontSize=18;" parent="N69s03XyUQndSGphbDnA-8" vertex="1"><mxGeometry x="300" y="700" width="150" height="70" as="geometry"/></mxCell></UserObject><mxCell id="5MDx8M7PKH2fSza1fkfd-44" style="edgeStyle=none;rounded=0;orthogonalLoop=1;jettySize=auto;entryX=0.5;entryY=1;entryDx=0;entryDy=0;fontSize=18;shape=link;strokeWidth=4;" parent="N69s03XyUQndSGphbDnA-8" source="5MDx8M7PKH2fSza1fkfd-45" target="5MDx8M7PKH2fSza1fkfd-43" edge="1"><mxGeometry relative="1" as="geometry"/></mxCell><UserObject label="Network&#10;Controller" treeRoot="1" id="5MDx8M7PKH2fSza1fkfd-50"><mxCell style="align=center;collapsible=0;container=1;recursiveResize=0;fontSize=18;" parent="N69s03XyUQndSGphbDnA-8" vertex="1"><mxGeometry x="480" y="660" width="90" height="60" as="geometry"/></mxCell></UserObject><mxCell id="5MDx8M7PKH2fSza1fkfd-55" value="I/O bus" style="text;resizable=0;autosize=1;align=center;verticalAlign=middle;points=[];fillColor=none;strokeColor=none;rounded=0;fontSize=18;" parent="N69s03XyUQndSGphbDnA-8" vertex="1"><mxGeometry x="560" y="610" width="70" height="30" as="geometry"/></mxCell><UserObject label="CPU" treeRoot="1" id="5MDx8M7PKH2fSza1fkfd-43"><mxCell style="align=center;collapsible=0;container=1;recursiveResize=0;fontSize=18;" parent="N69s03XyUQndSGphbDnA-8" vertex="1"><mxGeometry x="300" y="580" width="150" height="90" as="geometry"/></mxCell></UserObject><mxCell id="5MDx8M7PKH2fSza1fkfd-58" value="" style="shape=flexArrow;endArrow=classic;html=1;rounded=0;fillColor=#a20025;strokeColor=#6F0000;endWidth=8;endSize=7.33;" parent="N69s03XyUQndSGphbDnA-8" edge="1"><mxGeometry x="-0.7143" y="-120" width="50" height="50" relative="1" as="geometry"><mxPoint x="520" y="620" as="sourcePoint"/><mxPoint x="519.5" y="550" as="targetPoint"/><mxPoint as="offset"/></mxGeometry></mxCell><mxCell id="5MDx8M7PKH2fSza1fkfd-59" value="Interrupts" style="edgeLabel;html=1;align=center;verticalAlign=middle;resizable=0;points=[];fontSize=15;" parent="5MDx8M7PKH2fSza1fkfd-58" vertex="1" connectable="0"><mxGeometry x="-0.3143" relative="1" as="geometry"><mxPoint as="offset"/></mxGeometry></mxCell><mxCell id="5MDx8M7PKH2fSza1fkfd-25" value="services" parent="0" visible="0"/><mxCell id="5MDx8M7PKH2fSza1fkfd-26" value="" style="rounded=0;fillColor=#dae8fc;strokeColor=#6c8ebf;" parent="5MDx8M7PKH2fSza1fkfd-25" vertex="1"><mxGeometry x="300" y="240" width="360" height="140" as="geometry"/></mxCell><mxCell id="5MDx8M7PKH2fSza1fkfd-27" value="" style="shape=flexArrow;endArrow=classic;html=1;rounded=0;fillColor=#a20025;strokeColor=#6F0000;endWidth=8;endSize=7.33;" parent="5MDx8M7PKH2fSza1fkfd-25" edge="1"><mxGeometry x="-0.7143" y="-120" width="50" height="50" relative="1" as="geometry"><mxPoint x="470" y="360" as="sourcePoint"/><mxPoint x="470" y="430" as="targetPoint"/><mxPoint as="offset"/></mxGeometry></mxCell><mxCell id="5MDx8M7PKH2fSza1fkfd-32" value="Application code" style="text;html=1;align=center;verticalAlign=middle;resizable=0;points=[];autosize=1;strokeColor=none;fillColor=none;fontSize=13;labelBorderColor=none;" parent="5MDx8M7PKH2fSza1fkfd-25" vertex="1"><mxGeometry x="425" y="275" width="120" height="30" as="geometry"/></mxCell><mxCell id="5MDx8M7PKH2fSza1fkfd-33" value="&lt;font style=&quot;font-size: 13px;&quot;&gt;Dynamically loaded&amp;nbsp;libraries&lt;/font&gt;" style="text;html=1;align=center;verticalAlign=middle;resizable=0;points=[];autosize=1;strokeColor=none;fillColor=none;fontSize=13;labelBorderColor=none;" parent="5MDx8M7PKH2fSza1fkfd-25" vertex="1"><mxGeometry x="380" y="330" width="190" height="30" as="geometry"/></mxCell><mxCell id="5MDx8M7PKH2fSza1fkfd-34" value="&lt;font style=&quot;font-size: 13px;&quot;&gt;File systems&lt;/font&gt;" style="text;html=1;align=center;verticalAlign=middle;resizable=0;points=[];autosize=1;strokeColor=none;fillColor=none;fontSize=13;labelBorderColor=none;" parent="5MDx8M7PKH2fSza1fkfd-25" vertex="1"><mxGeometry x="520" y="460" width="100" height="30" as="geometry"/></mxCell><mxCell id="5MDx8M7PKH2fSza1fkfd-36" value="&lt;font style=&quot;font-size: 13px;&quot;&gt;Networking&lt;/font&gt;" style="text;html=1;align=center;verticalAlign=middle;resizable=0;points=[];autosize=1;strokeColor=none;fillColor=none;fontSize=13;labelBorderColor=none;" parent="5MDx8M7PKH2fSza1fkfd-25" vertex="1"><mxGeometry x="320" y="520" width="90" height="30" as="geometry"/></mxCell><mxCell id="5MDx8M7PKH2fSza1fkfd-40" value="" style="rounded=0;whiteSpace=wrap;html=1;labelBackgroundColor=none;labelBorderColor=default;fontSize=13;fillColor=none;strokeWidth=4;strokeColor=#FF0505;" parent="5MDx8M7PKH2fSza1fkfd-25" vertex="1"><mxGeometry x="390" y="330" width="170" height="30" as="geometry"/></mxCell><mxCell id="5MDx8M7PKH2fSza1fkfd-42" value="" style="rounded=0;whiteSpace=wrap;html=1;labelBackgroundColor=none;labelBorderColor=default;fontSize=13;fillColor=none;strokeWidth=4;strokeColor=#FF0505;" parent="5MDx8M7PKH2fSza1fkfd-25" vertex="1"><mxGeometry x="510" y="450" width="130" height="90" as="geometry"/></mxCell><mxCell id="5MDx8M7PKH2fSza1fkfd-38" value="&lt;font style=&quot;font-size: 13px;&quot;&gt;Process Management&lt;/font&gt;" style="text;html=1;align=center;verticalAlign=middle;resizable=0;points=[];autosize=1;strokeColor=none;fillColor=none;fontSize=13;labelBorderColor=none;" parent="5MDx8M7PKH2fSza1fkfd-25" vertex="1"><mxGeometry x="310" y="450" width="150" height="30" as="geometry"/></mxCell><mxCell id="5MDx8M7PKH2fSza1fkfd-39" value="&lt;font style=&quot;font-size: 13px;&quot;&gt;Memory Management&lt;/font&gt;" style="text;html=1;align=center;verticalAlign=middle;resizable=0;points=[];autosize=1;strokeColor=none;fillColor=none;fontSize=13;labelBorderColor=none;" parent="5MDx8M7PKH2fSza1fkfd-25" vertex="1"><mxGeometry x="310" y="490" width="150" height="30" as="geometry"/></mxCell><mxCell id="5MDx8M7PKH2fSza1fkfd-37" value="&lt;font style=&quot;font-size: 13px;&quot;&gt;Device Drivers&lt;/font&gt;" style="text;html=1;align=center;verticalAlign=middle;resizable=0;points=[];autosize=1;strokeColor=none;fillColor=none;fontSize=13;labelBorderColor=none;" parent="5MDx8M7PKH2fSza1fkfd-25" vertex="1"><mxGeometry x="520" y="500" width="110" height="30" as="geometry"/></mxCell><mxCell id="5MDx8M7PKH2fSza1fkfd-35" value="&lt;font style=&quot;font-size: 13px;&quot;&gt;Dynamically loaded modules&lt;/font&gt;" style="text;html=1;align=center;verticalAlign=middle;resizable=0;points=[];autosize=1;strokeColor=none;fillColor=none;fontSize=13;labelBorderColor=none;" parent="5MDx8M7PKH2fSza1fkfd-25" vertex="1"><mxGeometry x="480" y="545" width="190" height="30" as="geometry"/></mxCell></root></mxGraphModel></diagram></mxfile>